<svg width="90" height="18" viewBox="0 0 90 18" fill="none" xmlns="http://www.w3.org/2000/svg"><g clip-path="url(#a)"><path d="M9 .5 11.1 7H18l-5.6 4 2.2 6.5-5.6-4-5.6 4L5.6 11 0 7h6.9L9 .5Z" fill="#83B3D3"/></g><g clip-path="url(#b)"><path d="M33 .5 35.1 7H42l-5.6 4 2.2 6.5-5.6-4-5.6 4 2.2-6.5L24 7h6.9L33 .5Z" fill="#83B3D3"/></g><g clip-path="url(#c)"><path d="M57 .5 59.1 7H66l-5.6 4 2.2 6.5-5.6-4-5.6 4 2.2-6.5L48 7h6.9L57 .5Z" fill="#83B3D3"/></g><g clip-path="url(#d)"><path d="M81 .5 83.1 7H90l-5.6 4 2.2 6.5-5.6-4-5.6 4 2.2-6.5L72 7h6.9L81 .5Z" fill="#83B3D3"/></g><defs><clipPath id="a"><path fill="#fff" transform="translate(0 .5)" d="M0 0h18v17H0z"/></clipPath><clipPath id="b"><path fill="#fff" transform="translate(24 .5)" d="M0 0h18v17H0z"/></clipPath><clipPath id="c"><path fill="#fff" transform="translate(48 .5)" d="M0 0h18v17H0z"/></clipPath><clipPath id="d"><path fill="#fff" transform="translate(72 .5)" d="M0 0h18v17H0z"/></clipPath></defs></svg>